<svg xmlns="http://www.w3.org/2000/svg" width="60" height="60" viewBox="0 0 60 60">
  <defs>
    <linearGradient id="workingDaysGradient" x1="0%" y1="0%" x2="100%" y2="100%">
      <stop offset="0%" style="stop-color:#4A90E2;stop-opacity:1" />
      <stop offset="100%" style="stop-color:#357ABD;stop-opacity:1" />
    </linearGradient>
  </defs>
  
  <!-- Background with rounded corners -->
  <rect width="60" height="60" rx="12" fill="url(#workingDaysGradient)"/>
  
  <!-- Calendar icon -->
  <rect x="12" y="18" width="36" height="30" rx="3" fill="#FFFFFF"/>
  
  <!-- Calendar header -->
  <rect x="12" y="18" width="36" height="8" rx="3" fill="#2C3E50"/>
  
  <!-- Calendar binding rings -->
  <rect x="18" y="12" width="3" height="8" rx="1.5" fill="#2C3E50"/>
  <rect x="39" y="12" width="3" height="8" rx="1.5" fill="#2C3E50"/>
  
  <!-- Calendar grid dots -->
  <circle cx="20" cy="32" r="1.5" fill="#4A90E2"/>
  <circle cx="26" cy="32" r="1.5" fill="#4A90E2"/>
  <circle cx="32" cy="32" r="1.5" fill="#4A90E2"/>
  <circle cx="38" cy="32" r="1.5" fill="#4A90E2"/>
  
  <circle cx="20" cy="38" r="1.5" fill="#4A90E2"/>
  <circle cx="26" cy="38" r="1.5" fill="#4A90E2"/>
  <circle cx="32" cy="38" r="1.5" fill="#E74C3C"/>
  <circle cx="38" cy="38" r="1.5" fill="#4A90E2"/>
  
  <circle cx="20" cy="44" r="1.5" fill="#4A90E2"/>
  <circle cx="26" cy="44" r="1.5" fill="#4A90E2"/>
  <circle cx="32" cy="44" r="1.5" fill="#4A90E2"/>
  
  <!-- Small clock icon in corner -->
  <circle cx="45" cy="45" r="6" fill="#FFFFFF" stroke="#4A90E2" stroke-width="1"/>
  <line x1="45" y1="45" x2="45" y2="42" stroke="#4A90E2" stroke-width="1"/>
  <line x1="45" y1="45" x2="47" y2="45" stroke="#4A90E2" stroke-width="1"/>
</svg>